<?xml version="1.0" encoding="utf-8"?>
<!-- Generator: Adobe Illustrator 21.0.0, SVG Export Plug-In . SVG Version: 6.00 Build 0)  -->
<svg version="1.1" id="Layer_1" focusable="false" xmlns="http://www.w3.org/2000/svg" xmlns:xlink="http://www.w3.org/1999/xlink"
	 x="0px" y="0px" viewBox="0 0 576 512" style="enable-background:new 0 0 576 512;" xml:space="preserve">
<style type="text/css">
	.st0{clip-path:url(#SVGID_2_);}
	.st1{clip-path:url(#SVGID_4_);}
	.st2{fill:#EA6409;}
	.st3{fill:#FFFFFF;}
	.st4{fill:url(#SVGID_7_);}
</style>
<g>
	<g>
		<g>
			<defs>
				<circle id="SVGID_1_" cx="288.7" cy="256.5" r="239.3"/>
			</defs>
			<clipPath id="SVGID_2_">
				<use xlink:href="#SVGID_1_"  style="overflow:visible;"/>
			</clipPath>
			<g class="st0">
				<g>
					<defs>
						<rect id="SVGID_3_" x="38.2" y="5.9" width="501.1" height="501.1"/>
					</defs>
					<clipPath id="SVGID_4_">
						<use xlink:href="#SVGID_3_"  style="overflow:visible;"/>
					</clipPath>
					<g class="st1">
						<defs>
							<rect id="SVGID_5_" x="38.2" y="5.9" width="501.1" height="501.1"/>
						</defs>
						<clipPath id="SVGID_6_">
							<use xlink:href="#SVGID_5_"  style="overflow:visible;"/>
						</clipPath>
						<g style="clip-path:url(#SVGID_6_);">
							
								<image style="overflow:visible;" width="1046" height="1046" xlink:href="1992FE56.jpg"  transform="matrix(0.48 0 0 0.48 37.92 5.6)">
							</image>
						</g>
					</g>
				</g>
			</g>
		</g>
	</g>
</g>
<circle class="st2" cx="288.7" cy="256.5" r="200.8"/>
<path class="st3" d="M240.8,364.8c-15.2,8.5-34-2.6-33.8-20l1-88.5l1-88.5c0.2-17.4,19.2-28.1,34.2-19.2l76.1,45.2l76.1,45.2
	c15,8.9,14.7,30.7-0.5,39.2l-77.2,43.4L240.8,364.8z"/>
<path class="st2" d="M264.2,302c-6.7,3.8-14.9-1.1-14.8-8.8l0.5-38.9l0.5-38.9c0.1-7.7,8.4-12.4,15-8.4l33.5,19.8l33.5,19.8
	c6.6,3.9,6.5,13.5-0.2,17.2l-33.9,19.1L264.2,302z"/>
<linearGradient id="SVGID_7_" gradientUnits="userSpaceOnUse" x1="301.3212" y1="-4.4951" x2="285.5566" y2="113.7395">
	<stop  offset="5.154639e-03" style="stop-color:#FFFFFF"/>
	<stop  offset="0.1234" style="stop-color:#FFFCFB"/>
	<stop  offset="0.2496" style="stop-color:#FEF4EE"/>
	<stop  offset="0.3795" style="stop-color:#FCE7D9"/>
	<stop  offset="0.512" style="stop-color:#F9D4BB"/>
	<stop  offset="0.6465" style="stop-color:#F6BC94"/>
	<stop  offset="0.7827" style="stop-color:#F29E65"/>
	<stop  offset="0.9177" style="stop-color:#ED7B2E"/>
	<stop  offset="1" style="stop-color:#EA6409"/>
</linearGradient>
<ellipse class="st4" cx="288.7" cy="89.9" rx="55.5" ry="25.4"/>
</svg>
