<?xml version="1.0" encoding="utf-8"?>
<!-- Generator: Adobe Illustrator 21.0.0, SVG Export Plug-In . SVG Version: 6.00 Build 0)  -->
<svg version="1.1" id="Layer_1" focusable="false" xmlns="http://www.w3.org/2000/svg" xmlns:xlink="http://www.w3.org/1999/xlink"
	 x="0px" y="0px" viewBox="0 0 512 512" style="enable-background:new 0 0 512 512;" xml:space="preserve">
<style type="text/css">
	.st0{fill:url(#SVGID_1_);}
	.st1{fill:url(#SVGID_2_);}
	.st2{fill:url(#SVGID_3_);}
	.st3{fill:#FFFFFF;}
</style>
<linearGradient id="SVGID_1_" gradientUnits="userSpaceOnUse" x1="-2.6782" y1="258" x2="493.3218" y2="258" gradientTransform="matrix(1 0 0 -1 0 514)">
	<stop  offset="2.793296e-03" style="stop-color:#EC7221"/>
	<stop  offset="0.4568" style="stop-color:#FFFFFF"/>
	<stop  offset="0.7997" style="stop-color:#92C28C"/>
	<stop  offset="0.9996" style="stop-color:#57A14D"/>
</linearGradient>
<circle class="st0" cx="256" cy="256" r="248"/>
<linearGradient id="SVGID_2_" gradientUnits="userSpaceOnUse" x1="47.9" y1="258" x2="464.1" y2="258" gradientTransform="matrix(1 0 0 -1 0 514)">
	<stop  offset="2.793296e-03" style="stop-color:#EC7221"/>
	<stop  offset="0.4947" style="stop-color:#EA7121"/>
	<stop  offset="0.6719" style="stop-color:#E36D20"/>
	<stop  offset="0.7981" style="stop-color:#D8651E"/>
	<stop  offset="0.8995" style="stop-color:#C75B1B"/>
	<stop  offset="0.9861" style="stop-color:#B14E18"/>
	<stop  offset="0.9996" style="stop-color:#AD4B17"/>
</linearGradient>
<circle class="st1" cx="256" cy="256" r="208.1"/>
<linearGradient id="SVGID_3_" gradientUnits="userSpaceOnUse" x1="277.3062" y1="572.2963" x2="251.1184" y2="375.8883" gradientTransform="matrix(1 0 0 -1 0 514)">
	<stop  offset="5.154639e-03" style="stop-color:#FFFFFF"/>
	<stop  offset="0.1234" style="stop-color:#FFFCFB"/>
	<stop  offset="0.2496" style="stop-color:#FEF4EE"/>
	<stop  offset="0.3795" style="stop-color:#FCE7D9"/>
	<stop  offset="0.512" style="stop-color:#F9D4BB"/>
	<stop  offset="0.6465" style="stop-color:#F6BC94"/>
	<stop  offset="0.7827" style="stop-color:#F29E65"/>
	<stop  offset="0.9177" style="stop-color:#ED7B2E"/>
	<stop  offset="1" style="stop-color:#EA6409"/>
</linearGradient>
<ellipse class="st2" cx="256.4" cy="98.5" rx="92.2" ry="42.2"/>
<path class="st3" d="M256.1,170.8c-47.7,0-86.1,38.4-86.1,86.1s38.4,86.1,86.1,86.1s86.1-38.4,86.1-86.1S303.7,170.8,256.1,170.8z
	 M256.1,312.9c-30.8,0-56-25.1-56-56s25.1-56,56-56s56,25.1,56,56S286.9,312.9,256.1,312.9L256.1,312.9z M365.8,167.3
	c0,11.2-9,20.1-20.1,20.1c-11.2,0-20.1-9-20.1-20.1s9-20.1,20.1-20.1S365.8,156.2,365.8,167.3z M422.8,187.7
	c-1.3-26.9-7.4-50.7-27.1-70.4c-19.6-19.6-43.5-25.8-70.4-27.1c-27.7-1.6-110.8-1.6-138.5,0c-26.8,1.3-50.7,7.4-70.4,27
	s-25.8,43.5-27.1,70.4c-1.6,27.7-1.6,110.8,0,138.5c1.3,26.9,7.4,50.7,27.1,70.4s43.5,25.8,70.4,27.1c27.7,1.6,110.8,1.6,138.5,0
	c26.9-1.3,50.7-7.4,70.4-27.1c19.6-19.6,25.8-43.5,27.1-70.4C424.4,298.4,424.4,215.4,422.8,187.7L422.8,187.7z M387,355.9
	c-5.8,14.7-17.2,26-31.9,31.9c-22.1,8.8-74.6,6.7-99,6.7c-24.4,0-77,1.9-99-6.7c-14.7-5.8-26-17.2-31.9-31.9
	c-8.8-22.1-6.7-74.6-6.7-99s-1.9-77,6.7-99c5.8-14.7,17.2-26,31.9-31.9c22.1-8.8,74.6-6.7,99-6.7c24.4,0,77-1.9,99,6.7
	c14.7,5.8,26,17.2,31.9,31.9c8.8,22.1,6.7,74.6,6.7,99S395.8,333.9,387,355.9z"/>
</svg>
