<?xml version="1.0" encoding="utf-8"?>
<!-- Generator: Adobe Illustrator 21.0.0, SVG Export Plug-In . SVG Version: 6.00 Build 0)  -->
<svg version="1.1" id="Layer_1" focusable="false" xmlns="http://www.w3.org/2000/svg" xmlns:xlink="http://www.w3.org/1999/xlink"
	 x="0px" y="0px" viewBox="0 0 576 512" style="enable-background:new 0 0 576 512;" xml:space="preserve">
<style type="text/css">
	.st0{clip-path:url(#SVGID_2_);}
	.st1{clip-path:url(#SVGID_4_);}
	.st2{fill:#EA6409;}
	.st3{fill:#FFFFFF;}
</style>
<g>
	<g>
		<g>
			<defs>
				<circle id="SVGID_1_" cx="288" cy="256" r="256"/>
			</defs>
			<clipPath id="SVGID_2_">
				<use xlink:href="#SVGID_1_"  style="overflow:visible;"/>
			</clipPath>
			<g class="st0">
				<g>
					<defs>
						<rect id="SVGID_3_" x="19.9" y="-12.1" width="536.2" height="536.2"/>
					</defs>
					<clipPath id="SVGID_4_">
						<use xlink:href="#SVGID_3_"  style="overflow:visible;"/>
					</clipPath>
					<g class="st1">
						<defs>
							<rect id="SVGID_5_" x="19.9" y="-12.1" width="536.2" height="536.2"/>
						</defs>
						<clipPath id="SVGID_6_">
							<use xlink:href="#SVGID_5_"  style="overflow:visible;"/>
						</clipPath>
						<g style="clip-path:url(#SVGID_6_);">
							
								<image style="overflow:visible;" width="1118" height="1118" xlink:href="D6BB1F54.jpg"  transform="matrix(0.48 0 0 0.48 19.68 -12.16)">
							</image>
						</g>
					</g>
				</g>
			</g>
		</g>
	</g>
</g>
<circle class="st2" cx="288" cy="256" r="214.9"/>
<path class="st2" d="M261.8,304.7c-7.2,4-16-1.2-15.9-9.4l0.5-41.6l0.5-41.6c0.1-8.2,9-13.2,16.1-9l35.8,21.2l35.8,21.2
	c7.1,4.2,6.9,14.4-0.2,18.5l-36.3,20.4L261.8,304.7z"/>
<g>
	<polygon class="st3" points="437.4,154.9 437.4,145 139.6,145 139.6,146 296.5,267.6 	"/>
	<polygon class="st3" points="296.8,296.3 139.6,174.4 139.6,369 437.4,369 437.4,183.8 	"/>
</g>
</svg>
