<?xml version="1.0" encoding="utf-8"?>
<!-- Generator: Adobe Illustrator 21.0.0, SVG Export Plug-In . SVG Version: 6.00 Build 0)  -->
<svg version="1.1" id="Layer_1" focusable="false" xmlns="http://www.w3.org/2000/svg" xmlns:xlink="http://www.w3.org/1999/xlink"
	 x="0px" y="0px" viewBox="0 0 576 512" style="enable-background:new 0 0 576 512;" xml:space="preserve">
<style type="text/css">
	.st0{fill:#EA6409;}
	.st1{fill:url(#SVGID_1_);}
	.st2{fill:#FFFFFF;stroke:#FFFFFF;stroke-width:5.3804;stroke-miterlimit:10;}
</style>
<path class="st0" d="M545.8,195.6c-3.2-9.7-11.5-16.8-21.6-18.2L377.6,156L312,23.2c-4.5-9.1-13.8-14.9-24-14.9s-19.5,5.8-24,14.9
	L198.4,156L51.8,177.3c-10.1,1.5-18.5,8.5-21.6,18.2c-3.2,9.7-0.5,20.3,6.8,27.5L143,326.4l-25,146c-1.7,10.1,2.4,20.2,10.7,26.2
	c4.7,3.4,10.2,5.1,15.8,5.1c4.3,0,8.5-1,12.5-3.1L288,431.8l131.1,68.9c9,4.7,20,4,28.2-2c8.3-6,12.4-16.2,10.7-26.2l-25-146
	L539.1,223C546.4,215.9,549,205.3,545.8,195.6z"/>
<radialGradient id="SVGID_1_" cx="287.9978" cy="110.105" r="196.9032" gradientUnits="userSpaceOnUse">
	<stop  offset="0" style="stop-color:#FFFFFF"/>
	<stop  offset="1" style="stop-color:#FFFFFF;stop-opacity:0"/>
</radialGradient>
<path class="st1" d="M288.7,183c92.8,0,180.3,10.4,257.3,28.7c1.6-5.2,1.6-10.8-0.1-16.1c-3.2-9.7-11.5-16.8-21.6-18.2L377.6,156
	L312,23.2c-4.5-9.1-13.8-14.9-24-14.9s-19.5,5.8-24,14.9L198.4,156L51.8,177.3c-10.1,1.5-18.5,8.5-21.6,18.2
	c-1.8,5.4-1.7,11.2,0,16.4C107.4,193.5,195.4,183,288.7,183z"/>
<path class="st2" d="M249.2,208.1c0.8,0,2.1-0.1,4.1-0.4c1.9-0.2,4.1-0.4,6.4-0.4c11.2-0.7,20.7-0.9,28.5-0.6c7.8,0.4,12.3,1,13.4,2
	c1.9,0,3.4,0,4.5,0c1,0,2.2,0.2,3.5,0.5c1.3,0.3,2.4,0.7,3.2,1c1.5,0.4,2.7,0.6,3.9,0.5c1.1-0.1,3.6-0.5,7.3-1.2
	c2.7-0.3,6-0.7,9.7-1.1c3.7-0.4,7.2-0.7,10.6-1c3.4-0.2,6.2-0.4,8.6-0.5c2.4-0.1,3.7,0,4,0.4c-0.2,4.4-0.4,8.3-0.8,11.5
	c0,3.2-0.1,6.5-0.4,9.9c-0.3,3.4-0.4,5.8-0.4,7.2c0.3,2.9,0.4,4.6,0.3,5.1c-0.2,0.5-1,1-2.4,1.3c-3.8,0-8,0.2-12.6,0.7
	c-4.6,0.5-10.6,1.2-18.1,2.2c-1.5,0-3.2,0.1-5,0.3c-1.8,0.2-3.1,0.3-3.9,0.3c-1.5,0-2.5,0.2-2.8,0.6c-0.3,0.4-0.9,1.6-1.7,3.8
	c-0.8,2.7-1.4,4.8-1.8,6.2c-0.4,1.4-0.6,2.6-0.6,3.6c0,1,0.1,2,0.4,3c0.3,1,0.7,2.5,1.3,4.4c0.8,2.2,1.5,4,2.3,5.3
	c0.7,1.3,1.5,1.9,2.3,1.9c0.6,0.1,0.9,0.6,0.8,1.5c-0.4,0.6-0.9,1.4-1.4,2.5c-0.5,1.1-1,2.3-1.5,3.5c-0.5,1.2-0.9,2.4-1.2,3.4
	c-0.3,1-0.4,1.7-0.4,2c0,0.4,0,1.1,0,2.1c-0.9-0.1-1.4,0.6-1.5,2.1c0,0.4,0,0.8-0.1,1.1c0,0.3-0.2,0.4-0.6,0.4
	c-1.6,0-1.4,2.9,0.6,8.6c1.8,4.4,3,7.4,3.5,9.1c0.5,1.7,0.6,3,0.3,3.7c-0.4,0-0.7,0.3-0.8,0.9c-0.1,0.6-0.3,1.2-0.6,2
	c0,0.4-0.2,1.4-0.5,2.8c-0.3,1.5-0.7,2.9-1,4.3c-0.8,2.6-1.2,4.4-1.3,5.5c-0.1,1.1,0.1,2.2,0.5,3.1c0.2,2.1,0.7,3.5,1.5,4.2
	c0.3,0.7,0.9,2.6,1.8,5.7c0.9,3,1.5,6.2,1.9,9.4c0.3,2.2,0.6,3.7,0.8,4.5c0.2,0.8,0.6,1.2,1.4,1.2c1.5,0.7,1.5,1.5,0,2.2
	c-0.8,0.6-0.8,1.5,0,2.8c0.3,1.1,0.5,1.9,0.5,2.4c0,0.5-0.2,1.2-0.5,1.9c-0.4,0.4-0.6,1.1-0.6,1.9c0,0.9,0,1.7,0,2.4
	c0,0.7-0.2,1.7-0.5,2.8c-0.3,1.2-0.7,2.1-1,2.8c-0.8,2.3-0.8,3.5,0,3.6c0.3,0.7,0.2,1.6-0.5,2.5c-0.6,0.9-1.5,1.5-2.5,1.9
	c-1.1,0-2.5-0.1-4.3-0.2c-1.7-0.1-5.5-0.6-11.5-1.3c-1.5,0-3.9-0.1-7-0.4c-3.1-0.2-5.8-0.4-8-0.4c-2.7,0-5-0.1-7-0.4
	c-2-0.2-3.1-0.6-3.5-1c-1.1-0.5-1.8-0.7-2.2-0.7c-1.1,0-1.9-0.2-2.4-0.7c-0.5-0.5-0.9-2.1-1.3-5c-0.8-4.6-1.2-7.8-1.2-9.6
	c0-1.8,0.4-3.6,1.2-5.4c0.3-0.7,0.7-1.6,1-2.5c0.3-0.9,0.5-1.8,0.5-2.5c0-0.3,0-1,0-2.1c0.3,0,0.7-0.3,1.1-0.9
	c0.4-0.6,0.8-1.2,1.2-2c0.8-1.4,1.2-2.5,1.2-3.2c0-0.7-0.4-1.6-1.2-2.7c-0.4-0.3-0.6-0.8-0.6-1.4c0-0.6,0.2-1.1,0.6-1.5
	c0.3-0.3,0.5-1.5,0.5-3.5c0-2-0.2-3.2-0.5-3.6c-0.4-0.3-0.6-2.1-0.6-5.4c0-3.3,0.5-6.5,1.2-9.7c0-1,0-2.7,0-5.1c0-2.4,0-4.8,0-7
	c0-3.2,0-5.2-0.1-6c0-0.8-0.2-1.2-0.6-1.2c-1.7,0.2-1.5-0.8,0.6-2.8c0.8-1,1.2-1.6,1.2-1.9c0-0.2-0.4-0.6-1.2-1
	c-0.4-0.3-0.8-0.7-1-1.1c-0.2-0.4-0.1-0.8,0.3-1.2c0.3,0,0.5-0.3,0.6-0.9c0-0.6,0.1-1.2,0.1-2c0-0.7,0-1.3-0.1-1.6
	c-0.1-0.3-0.5-0.5-1.3-0.5c-0.9,0-1.4,0-1.5,0c0.2-0.7,0.7-1.5,1.5-2.2c2.1-1.5,2.4-2.9,0.8-4.3c0-0.3-0.1-1-0.4-2
	c-0.3-1-0.4-2.2-0.4-3.7c0-1-0.2-2.2-0.5-3.8c-0.3-1.5-0.7-2.7-1-3.4c-0.8-1.4-1.3-3.1-1.6-5.1c-0.3-2-0.2-3.4,0.2-4.1
	c0.8-0.7,1.5-2.2,2.2-4.3c0.3-1.7,0.6-2.6,0.6-2.7c0.1-0.1,0.1,0.6,0.1,2c-0.4,1.5-0.5,2.2-0.1,2.1c0.3-0.1,1.8-1,4.5-2.8
	c1-0.7,2.3-1.4,3.7-1.9c1.4-0.5,2-0.6,1.6-0.2c-0.4,0.7,0.2,0.8,1.8,0.2c1.6-0.6,3.8-1.6,6.4-3.1c1.5-0.7,3.2-1.7,5.3-3
	c2.1-1.2,4-2.4,5.9-3.5c1.5-1,3.1-2,5-3.1c1.8-1.1,3.2-2,3.9-2.7c0.8-0.3,1.6-0.6,2.5-0.9c0.9-0.3,1.6-0.4,2-0.4
	c0.2,0,1-0.4,2.6-1.3c1.5-0.9,3.4-1.9,5.6-3.2c2.2-1.2,4.5-2.6,7-4c2.4-1.4,4.6-2.7,6.5-3.8c2.2-1.4,4.3-2.6,6.2-3.5
	c1.9-0.9,3.1-1.4,3.5-1.4c0.3,0,1-0.3,2-0.9c1-0.6,2-1.3,3.2-2c2.2-1.4,3.3-2.2,3.1-2.5c-0.2-0.2-1.9-0.4-5.3-0.4
	c-3-0.3-5-0.3-6-0.1c-1,0.3-2,0.8-3,1.5c-0.8,0.7-1.5,1.3-2.1,1.7c-0.6,0.4-0.9,0.8-0.9,1.1c-0.4,0-0.7,0-0.8,0c-0.1,0-0.4,0-0.7,0
	c-2.5,1.6-4.6,3-6.2,4.1c-1.7,1.1-3.4,2.2-5.2,3.3c-1.8,1.1-3.2,2-4.2,2.7c-0.4,0.4-2,1.5-4.6,3.3c-2.6,1.8-5.6,3.8-9,5.9
	c-3.4,2.2-6.7,4.4-10.1,6.7c-3.4,2.2-6,3.8-7.8,4.8c-3,2.2-5,3.4-5.9,3.6c-0.8,0.4-0.6,0.1,0.4-0.8c1-0.9,2.9-2.3,5.5-4.1
	c1.8-1,3.4-2,4.8-3c1.4-1,2.3-1.7,2.7-2.1c0.2-0.2,0.7-0.5,1.7-1.1c0.9-0.6,2-1.2,3.1-1.9c1.1-0.7,2.2-1.3,3.2-1.9
	c1-0.5,1.6-0.8,1.9-0.8c0.2,0,1.1-0.6,2.8-1.8c1.7-1.2,3.5-2.5,5.5-4c2-1.5,3.9-2.9,5.5-4.1c1.7-1.3,2.5-2,2.5-2.3
	c0.3-0.3,0.4-0.5,0.3-0.5c-0.2,0-0.3,0.2-0.3,0.5c-0.3,0.2-1,0.7-2.2,1.4c-1.2,0.7-2.5,1.4-3.9,2.2c-1.4,0.7-2.8,1.4-4.1,2
	c-1.3,0.6-2.1,0.9-2.4,0.9v0.7c0,0.4-0.7,0.9-2.1,1.5c-1.4,0.6-4,1.8-7.7,3.5c-1.6,0.8-3.6,2-5.9,3.6c-1.1,0.7-2.7,1.8-4.8,3
	c-2.1,1.3-4.2,2.4-6.4,3.4c-2.3,1.1-5.1,2.7-8.2,4.9c-0.6,1.6-0.9,1.4-0.8-0.6c0-0.8,0.8-2,2.3-3.6c0.8-0.7,1.8-1.6,3.1-2.5
	c1.3-0.9,2.5-1.8,3.6-2.5c0.8-1,1.9-2.1,3.5-3.4c1.5-1.3,2.9-2.3,4-3c1-0.7,2.2-1.5,3.4-2.4c1.2-0.9,2.1-1.5,2.5-1.9
	c0.3-0.3,1.2-1.1,2.5-2.3c1.3-1.2,2.7-2.3,4.3-3.4c2.9-2.1,5.1-3.9,6.6-5.2c1.5-1.3,2-2,1.7-2c0-0.3-0.1-0.4-0.4-0.1
	c-0.3,0.2-0.6,0.5-1,0.9c-0.8,0.6-3,2-6.8,4.1c-3.7,2.2-7.7,4.4-11.9,6.8c-4.2,2.3-8,4.4-11.5,6.3c-3.5,1.9-5.5,2.8-5.8,2.8
	c-0.1,0,0.2,0.7,0.8,2.1c1,0.7,1.6,1.2,1.7,1.4c0.1,0.2-0.2,0.5-1,0.8c-0.8,0.2-2.8,0.4-6.2,0.5c-3.4,0.1-7.2,0.1-11.5,0.1
	c-4.3,0-8.7,0-13.1-0.1c-4.4-0.1-8.1-0.2-11-0.5c-6.6-0.7-9.1-1.5-7.5-2.2c0.3-0.7,0.5-2,0.5-3.8c0-1.8-0.4-2.7-1.2-2.7
	c0,0.1,0-0.9,0-2.8c0.3-1.4,0.4-2.2,0.1-2.5c-0.3-0.3-0.6-0.6-0.9-1c-1.1,0-1.7-0.1-1.7-0.3c0-0.2,0.6-0.8,1.7-1.9
	c0.3-1,0.6-1.9,0.9-2.6c0.3-0.7,0.2-2-0.1-3.8c0-1.7,0.1-3.6,0.4-5.6c0.3-2,0.6-3.2,1-3.6c0.2-0.2,1.1-0.2,2.9-0.1
	c1.8,0.1,3.7,0.2,5.8,0.5c2.1,0.2,4.1,0.5,6.1,0.8c2,0.3,3.3,0.6,3.9,0.9c0.8,0,1.4,0,1.7,0c0.4,0,0.8-0.2,1.2-0.6
	c0.9-0.8,2.1-1.3,3.7-1.5c0.3,0,0.9,0,1.8-0.1C248.2,208.8,248.8,208.5,249.2,208.1z M238,217.5c0.8-0.2,1.5-0.7,2.3-1.5
	c0-0.7,0-0.9,0-0.7c-0.8,0-1.9,0.3-3.4,0.9c-1.5,0.6-2.6,1-3.4,1.4c-0.4,0.4-1.9,1.4-4.4,3c-2.5,1.6-4.5,2.7-6,3.5
	c-1.1,0.4-1.9,1-2.3,1.9c-0.4,0.8-0.4,1.6,0.1,2.3c0.3,0.4,1,0.4,1.9,0c0.9-0.4,2.5-1.4,4.8-2.8c1.5-1,2.9-2.1,4.3-3.4
	c1.4-1.3,2.4-2.3,3.2-3c0.3-0.3,0.8-0.6,1.4-0.9C237.1,217.7,237.6,217.5,238,217.5z M237.3,213.9c-1.5-0.5-2.7-0.7-3.7-0.7
	c-2.3-0.7-3.7-1.1-4.1-1.1c-0.4,0-1,0.4-1.8,1.1c0,0.4-0.3,0.9-0.9,1.5c-0.6,0.6-1.3,1.3-2.1,2c-1.1,1.5-2,2.7-2.6,3.7
	c-0.6,1-0.8,1.6-0.3,2c1.8-0.7,3.3-1.4,4.4-2.1c1-0.7,2.4-1.5,4.1-2.2c1.7-0.7,3.1-1.4,4.2-2.2c0.8-0.3,1.5-0.7,2.1-1
	C237,214.7,237.3,214.3,237.3,213.9z M222.3,217.5c0.3-0.3,0.9-1.2,1.8-2.5c0.9-1.3,1.3-2.2,1.3-2.6c0-0.9-0.8-0.7-2.3,0.7
	c-0.8,0.7-1.3,1.8-1.5,3C221.3,217.5,221.5,217.9,222.3,217.5z M251.6,216.8c1.5-0.6,2.5-1.1,3-1.5c0.8-0.7,1.4-1.4,1.9-2
	c0.5-0.6,0.6-0.9,0.3-0.9c-1.8,0.9-3.2,1.6-4.3,2.1c-1,0.5-2,1-3,1.6c-0.9,0.6-1.5,1-1.7,1.4c-0.4,0-1.7,0.6-3.7,1.7
	c-2,1.2-4.3,2.2-6.9,3.2c-0.8,0.7-1.6,1.4-2.5,2c-0.9,0.6-1.5,0.9-1.9,0.9c-0.4,0.4-1.3,1-2.6,1.9c-1.3,0.9-2.7,1.7-4.2,2.4
	c-2.3,1.1-3.6,1.9-3.9,2.4c-0.3,0.5-0.5,1.2-0.5,1.9c0,0.7,0.2,1.4,0.6,2.1c0.3,0.4,1.8-0.2,4.4-1.7c2.6-1.6,4.6-2.9,6.2-4
	c1-0.7,2.4-1.9,4.1-3.3c1.7-1.5,3.3-2.8,4.8-3.8c1.8-1,3.4-2,4.8-3c1.4-1,2.3-1.7,2.7-2.1C250,217.3,250.8,216.8,251.6,216.8z
	 M267.1,217.5c0.3,0,0.9-0.3,1.5-0.9c0.7-0.6,1.4-1.3,2.2-2c1.5-2,2.3-2.9,2.3-2.8c-0.4,0-1.8,0.6-4.1,1.7c-2.3,1.2-4.8,2.4-7.3,3.8
	c-2.6,1.4-4.9,2.7-7,3.9c-2.1,1.2-3.2,1.9-3.2,2c-0.4,0-0.7,0-0.8,0c-0.1,0-0.4,0-0.7,0c-1.2,1.1-2.2,1.8-3,2.1
	c-0.8,0.4-2.3,1.4-4.6,2.8c-2.3,1.5-4.8,2.9-7.3,4.3c-3,1.5-6.5,3.4-10.4,5.8c-0.2,0.8,2.3,1.3,7.5,1.4c3.7,0.4,6,0.6,6.9,0.5
	c0.9-0.1,1.6-0.5,2-1.2c0.3-0.3,1.2-0.9,2.4-1.8c1.3-0.9,2.5-1.7,3.6-2.4c3.3-3.2,6.2-5.8,8.6-7.8c2.4-2,4.5-3.9,6.4-5.7
	c1-1,2-1.8,3-2.5C266,217.9,266.7,217.5,267.1,217.5z M242.5,218.9c3.4-1.7,5.8-3.1,7.3-4.1c1.5-1,2.8-2,3.9-3.1
	c1.5-0.6,1.7-0.8,0.8-0.7c-1.7,0-3,0-3.7,0c-0.8,0-1.6,0.3-2.6,0.9c-0.9,0.6-1.6,1-1.9,1.4c-0.8,0.4-1.5,0.9-2.3,1.5
	c-0.7,0.6-1.5,1-2.3,1.4c-0.6,0.2-1.6,0.9-3,2c-1.4,1.1-2.8,2.2-4.2,3.5c-1.4,1.2-2.6,2.3-3.6,3.2c-1,0.9-1.4,1.4-1.2,1.4
	c1.7-1,3-1.7,3.7-2.1c0.8-0.7,2.1-1.6,3.9-2.5C239.3,220.5,241,219.6,242.5,218.9z M266.5,213.2c1-0.7,2-1.3,3-1.7
	c0.9-0.4,1.4-0.8,1.4-1.2c0.7-0.7,0.9-0.9,0.8-0.7c-0.8,0-2.3,0-4.5,0c-1.9,0.4-3.3,0.8-4.1,1.1c-0.9,0.3-2.2,1.1-4,2.5
	c-0.8,1.1-1.6,1.8-2.6,2.2c-0.9,0.4-1.6,0.6-1.9,0.6c-0.4,0-1.5,0.7-3.1,2c-1.6,1.3-2.8,2.3-3.6,3.1c-0.8,0.7-2.3,1.9-4.5,3.5
	c-1.1,0.7-2.4,1.7-3.7,3c0,0.4,1.2,0,3.5-1.2c2.3-1.2,5.2-3,8.5-5.2c1.5-1,2.8-1.8,4.1-2.5c1.3-0.7,2.1-1.1,2.6-1.1
	c0.8-0.3,1.5-0.6,2.1-0.7c0.6-0.1,0.9-0.4,0.9-0.8c0.3-0.3,1-0.8,2.1-1.4C264.3,214.1,265.4,213.6,266.5,213.2z M286.6,217.5
	c0.8-0.7,2.3-1.6,4.5-3c0.8-1,1.4-1.7,1.9-2.2c0.5-0.5,0.6-0.7,0.3-0.7c-0.4,0-1.2,0.3-2.3,0.9c-1.1,0.6-2.1,1.2-2.8,2
	c-2.1,1.2-3.8,2.2-5.3,3c-1.5,0.7-3.1,1.5-4.7,2.4c-1.6,0.9-2.8,1.5-3.5,1.8c-0.8,0.7-2,1.6-3.5,2.7c-1.6,1.1-3.1,2.1-4.6,3.1
	c-1.5,0.7-3.6,1.9-6.1,3.6c-0.9,0.7-2.1,1.4-3.7,2.1c-0.8,0.4-1.8,0.9-3.2,1.5c-1.4,0.6-2.8,1.3-4.3,2c-2.7,1.5-4,2.3-4.1,2.5
	c-0.1,0.2,0.8,0.3,2.7,0.3c1,0,2,0,2.8-0.1c0.8-0.1,1.6-0.5,2.4-1.2c0.8-0.3,1.7-0.8,2.6-1.5c1-0.7,1.9-1.4,2.6-2.1
	c1.5-0.7,4.4-2.5,8.9-5.3c4.5-2.8,9-5.8,13.5-9c1.5-0.7,2.7-1.4,3.7-2C285.4,217.8,286.2,217.5,286.6,217.5z M290.3,211.7
	c1,0,1.3-0.3,0.8-1.1c-0.5-0.7-1.3-1.1-2.3-1.1c-0.8,0-1.8,0-3.2,0c-1.3,0-2.5,0-3.5,0c-1.9,0-3.2,0.1-4,0.4
	c-0.8,0.2-1.7,1.1-2.7,2.5c-0.8,0.7-1.7,1.4-2.6,2.1c-1,0.7-1.9,1.2-2.6,1.5c-0.4,0.4-1.3,1.2-2.6,2.5c-1.3,1.2-2.9,2.6-4.7,4
	c-1.5,1.5-3.3,3-5.3,4.7c-2,1.6-3.5,3-4.5,4c-1.1,0.7-2.3,1.5-3.4,2.4c-1.2,0.9-1.7,1.5-1.7,1.8c-0.4,0-0.7,0.2-0.8,0.7
	c0,0.2,0.6,0.1,1.7-0.4c1.2-0.5,2.5-1.2,4.1-2c1.5-0.8,3.1-1.6,4.8-2.5c1.6-0.9,2.8-1.6,3.6-2.2c0.5-0.3,1.8-1.1,3.7-2.3
	c2-1.2,4.1-2.5,6.4-3.8c2.3-1.3,4.3-2.5,6.2-3.6c1.8-1.1,2.9-1.6,3.2-1.6c0.2,0,0.7-0.2,1.5-0.7c0.8-0.5,1.7-1.1,2.7-1.8
	c1-0.7,1.9-1.4,2.7-2c0.8-0.6,1.2-1,1.2-1.3c0.3,0,0.6,0,0.7,0C289.6,211.7,289.9,211.7,290.3,211.7z M303.1,211.7
	c-0.2,0-0.7,0-1.5,0c-0.4,0-0.9-0.1-1.5-0.4c-0.6-0.2-1.1-0.4-1.4-0.4c-1.2,0.2-2.2,0.7-3,1.5c-0.4,0.4-1.7,1.3-3.9,2.6
	c-2.2,1.3-4.4,2.8-6.6,4.6c-2.7,1.8-5.6,3.7-8.7,5.6c-3.1,1.9-5.4,3.4-6.9,4.4c-1.5,1.1-3.8,2.3-6.7,3.6c-0.9,0.1-1.5,0.6-1.5,1.5
	c-0.1,0.8-0.6,1.3-1.5,1.4c-0.9-0.2-1.3,0.1-1.4,0.7c-0.7,0.7-0.9,0.9-0.8,0.7c0.7,0,0.9,0,0.8,0c0.1-0.8,0.6-1.3,1.4-1.5
	c0.9,0.2,1.5-0.1,1.5-0.7c0.3-0.3,0.8-0.6,1.4-0.9c0.6-0.3,1.1-0.4,1.5-0.4c0.8,0,1.8-0.3,3.2-1c1.3-0.7,2.8-1.5,4.3-2.6
	c1.5-1,3-2,4.8-3c1.7-1,3.1-1.7,4.3-2.1c0.8-0.7,1.9-1.6,3.5-2.5c1.5-0.9,3.1-1.7,4.6-2.5c1-1,2.8-1.9,5.3-2.8c0.3,0,1-0.2,2-0.7
	c1-0.5,2-1.1,3-1.8c1-0.7,2-1.4,2.8-2C302.7,212.4,303.1,211.9,303.1,211.7z M277.6,228.9c0.9,0,1.4,0,1.5,0c0-0.7-0.3-1.1-0.9-1.1
	c-0.6,0-1.3,0.4-2.1,1.1c-0.8,0.7-1.8,1.5-3.1,2.2c-1.3,0.7-4,1.9-8.1,3.6c-4.4,2.1-6.1,3.5-5.3,4.2c0.2,0.2,0.9,0.1,2.3-0.4
	c1.3-0.5,2.9-1.2,4.6-2c1.8-0.8,3.5-1.7,5.2-2.7c1.7-1,2.9-1.9,3.7-2.6C275.7,230.4,276.5,229.6,277.6,228.9z M317.9,233.9
	c0.3,0,1.8-0.8,4.4-2.3c2.6-1.5,5.4-3.4,8.4-5.6c7-5.4,10.4-8.1,10.1-8.2c-0.3-0.1-4.4,2.1-12.2,6.7c-2.3,1.5-5.1,3.2-8.2,5.1
	c-0.9,0-2.1,0.7-3.7,2.1c-0.8,0.4-2,0.9-3.7,1.5c-0.4,0-1.6,0.6-3.5,1.8c-1.9,1.2-4,2.5-6.2,3.9c-2.3,1.1-5.3,2.5-9,4.3
	c-2.5,1.9-4.5,3.3-5.9,4.3c-1.5,0.7-3,1.4-4.3,2c-1.3,0.6-2.2,0.9-2.5,0.9c-2.5,1.4-4.5,2.6-5.9,3.6c-1.5,0.7-3.1,1.6-4.7,2.5
	c-1.6,0.9-2.8,1.5-3.5,1.9c-1.5,0.7-2.5,1.4-3,2c-0.4,0.6-0.4,1.4,0,2.3c0,0.7,0.1,1.5,0.4,2.4c0.3,0.9,0.4,1.5,0.4,1.8
	c0.3,1.1,0.8,1.6,1.2,1.5c0.5-0.1,2-1,4.7-2.8c1-0.7,2.1-1.4,3.1-2c1-0.6,1.8-0.9,2.2-0.9c0-0.3,0.6-1,1.8-2c1.2-1,2.6-2,4.1-3.1
	c1.8-1,3.4-2,4.8-2.9c1.4-0.9,2.3-1.6,2.7-2c0.8-0.5,1.5-0.7,2.3-0.7c0.3-0.2,1.3-0.8,2.9-1.9c1.6-1.1,3.3-2.2,5.1-3.5
	c1.8-1.2,3.5-2.4,5-3.5c1.5-1.1,2.4-1.7,2.6-2c0.2-0.2,0.8-0.6,1.7-1.3c1-0.7,2.1-1.4,3.4-2.2c1.2-0.8,2.4-1.5,3.4-2.2
	C317,234.7,317.7,234.2,317.9,233.9z M306.1,342c0-1,0-1.7,0-2.1c-0.7-1.1-1.2-1.8-1.5-2.2c-0.4-0.3-0.8-0.4-1.1-0.2
	c-0.3,0.2-1.2,0.7-2.6,1.7c-0.4,0.7-1.2,1.6-2.3,2.5c-1.1,0.9-2.1,1.5-2.8,1.9c-1.1,0.7-2.4,1.8-3.8,3c-1.4,1.3-2.6,2.4-3.7,3.4
	c-1.1,0.7-2.3,1.6-3.7,2.5c-1.3,0.9-2.4,1.5-3.2,1.9c-1.5,0.7-3.3,2-5.2,3.8c-1.9,1.8-2.7,2.7-2.3,2.7c0.3,0.4,0.9,0.4,1.5,0
	c0.2-0.2,0.7-0.5,1.7-1.1c0.9-0.5,2.1-1.1,3.3-1.8c1.3-0.7,2.6-1.3,3.9-2c1.3-0.7,2.3-1.2,3.1-1.6c1.5-0.5,1.9-0.5,1.4,0
	c-0.5,0.5-1.7,1.3-3.5,2.3c-1.8,1-4.1,2.3-7,3.8c-2.8,1.5-5.8,3.1-8.9,4.6c-2.7,1.1-4.1,1.3-4.3,0.7c-0.2-0.6,1.2-1.8,4.3-3.6
	c1-0.7,2-1.6,3-2.5c1-0.9,1.7-1.7,2.1-2.5c0.8-0.3,1.5-0.8,2.1-1.3c0.6-0.5,1.2-0.8,1.6-0.8c0.7-0.3,1.7-0.9,2.9-1.8
	c1.2-0.9,2.5-1.8,3.7-2.7c1.2-0.9,2.3-1.8,3.2-2.6c0.9-0.8,1.4-1.3,1.4-1.5c1.4-1.2,2.6-2.1,3.7-2.8c2.4-1.6,3.6-2.8,3.7-3.6
	c0-0.3-0.1-0.4-0.4-0.3c-0.3,0.1-1.1,0.7-2.6,1.7c-4.1,2.2-7.6,4-10.6,5.4c-2.9,1.4-4.9,2.5-5.9,3.2c-0.8,0-1.4,0.2-1.8,0.5
	c-0.4,0.3-0.8,0.7-1.2,1c0,0.4-0.9,0.9-2.7,1.4c-1.8,0.5-2.9,0.7-3.2,0.7c-0.4,0-0.8,0.5-1.2,1.4c-0.3,0.9-0.7,2.1-1,3.5
	c-0.4,1.1-0.8,2.2-1.2,3.3c-0.4,1.2-0.8,1.7-1.1,1.7c-0.3,0.4-0.3,1.2-0.3,2.3c0.1,1.1,0.3,2.2,0.5,3.4c0.3,1.2,0.6,2.2,0.9,3
	c0.3,0.9,0.7,1.3,1.2,1.3c0.2,0,1.4-0.8,3.8-2.5c2.4-1.6,5-3.5,7.8-5.6c2.8-2.1,5.5-4.1,7.9-6.1c2.4-1.9,3.9-3.2,4.3-3.8
	c0.3-0.3,0.8-0.6,1.4-0.9c0.6-0.3,1.1-0.4,1.5-0.4c0.3,0,0.8-0.1,1.4-0.4c0.6-0.3,0.9-0.6,0.9-1.1c0-0.3-0.3-0.5-0.9-0.4
	c-0.6,0-1.1,0.4-1.4,1.2c-0.4,0-0.8,0.1-1.2,0.3c-0.3,0.2-0.7,0.1-1-0.3c-0.4,0-0.4-0.2,0.2-0.6c0.6-0.4,2-1.2,4.3-2.2
	c1.5-0.7,2.9-1.5,4.3-2.4c1.4-0.9,2.4-1.5,3.2-1.9c0.8-0.7,1.5-1.1,2.3-1.2c0.8,0,1,0.1,0.6,0.4c0,0.4-0.5,1.1-1.5,1.9
	c-1,0.9-2.1,1.8-3.2,2.7c-1.2,0.9-2.3,1.7-3.3,2.3c-1,0.7-1.6,1-1.8,1c-0.4,0-1.1,0.4-2.1,1.2c-1,0.8-2,1.6-3,2.3
	c-1.4,1.2-3,2.4-4.8,3.8c-1.8,1.4-3.7,2.7-5.5,4c-1.8,1.3-3.4,2.5-4.8,3.5c-1.4,1.1-2.3,1.9-2.8,2.3c-1.1,0.4-1.7,0.7-1.7,0.8
	c0,0.1,0.6,0.4,1.7,0.7c1.6,0,0.6,0.7-3.1,2.1c-1.1,0.4-2.6,1.1-4.4,2.1c-0.4,0.7-0.4,1.6,0.2,2.7c0.6,1,1.2,1.3,2,0.9
	c0.8,0,2-0.5,3.5-1.4c1.6-0.9,3.2-2.1,4.7-3.6c0.3-0.3,0.9-0.8,1.8-1.4c0.9-0.6,1.5-1.1,1.9-1.5c1.5-0.3,3.4-1.2,5.7-2.7
	c2.4-1.5,3.9-2.8,4.7-3.8c0.8-0.6,1.5-0.8,2.2-0.6v-0.7c0-0.3-0.5-0.4-1.6-0.1c-1.1,0.2-2,0.7-2.8,1.5c-2,1-3.6,1.8-4.9,2.5
	c-1.3,0.7-2.5,1.3-3.7,1.9c-1.2,0.6-2.1,1.1-2.6,1.4c-2.3,0.7-2.6,0.5-0.8-0.7c1.8-1.2,4.5-2.9,8.3-5.1c1.8-0.7,4.3-1.9,7.4-3.3
	c3.1-1.5,5.6-2.8,7.5-3.8c2.2-1,4.2-1.8,5.8-2.5c1.6-0.7,2.7-1,3.1-1c0.7,0,0.9-0.7,0.8-2.2c0-1.4-0.3-3.4-0.9-6.1
	C307.5,344,306.8,342.4,306.1,342z M285.8,261.9c0.3,0,1-0.3,1.9-0.9c0.9-0.6,1.8-1.2,2.6-2c0.8-0.7,1.4-1.4,1.9-2
	c0.5-0.6,0.6-0.9,0.3-0.9c-2.6,1.2-4,2.1-4.4,2.8c-2.8,1.4-5,2.6-6.8,3.6c-1.9,1.1-4.1,2.3-6.7,3.6c0,0.4-0.5,0.8-1.5,1.1
	c-1,0.3-2,0.7-3,1c-1.9,0.4-3,0.8-3.2,1.1c-0.3,0.3-0.2,1.1,0.3,2.5c0,0.7,0.3,1.7,0.8,2.8c0.2,0.2,0.7,0.1,1.5-0.4
	c0.9-0.5,1.8-1.1,2.8-1.9c1-0.7,1.9-1.4,2.7-2.1c0.8-0.7,1.2-1.1,1.2-1.4c-0.1,0,0.2,0,0.8,0c0.3,0,1.4-0.8,3.3-2.3
	c1.8-1.5,3-2.7,3.4-3.4C284.4,263.3,285.1,262.8,285.8,261.9z M286.6,337.1c0.3,0,0.9-0.3,1.5-0.9c0.7-0.6,1.4-1.3,2.2-2
	c0.8-0.7,1.4-1.3,1.9-1.6c0.5-0.3,0.6-0.5,0.3-0.5c-0.4,0-1.2,0.3-2.3,0.9c-1.1,0.6-2.1,1.2-2.8,2c-0.4,0.4-0.9,0.8-1.5,1.1
	c-0.6,0.3-1.1,0.4-1.4,0.4c-0.8,0-1.9,0.4-3.4,1.2c-1.5,0.8-3.1,1.6-4.9,2.3c-1.5,1.1-3.6,2.3-6.1,3.6c-0.9-0.2-1.3,0.1-1.4,0.7
	c-0.4,0.7-0.5,1.9-0.3,3.3c0.3,1.5,0.6,2,1,1.6c0.9-0.2,2.9-1.4,5.9-3.6c2.9-2.8,5.2-4.8,7-6.1C284.1,338.3,285.5,337.5,286.6,337.1
	z M282.9,320.5c0.2,0,0.9-0.5,2.3-1.5c1.3-1,2.8-2.2,4.3-3.5c1.5-1.3,3-2.5,4.3-3.6c1.3-1.2,1.9-1.9,1.9-2.1c0-0.3-0.3-0.4-0.9-0.2
	c-0.6,0.2-1.8,1-3.6,2.4c-1.1,0.7-3,1.8-5.7,3c-2.7,1.3-5.3,2.4-7.9,3.4c-2.3,1.3-4.1,2.3-5.3,3.1c-1.2,0.7-2.1,1.4-2.6,1.9
	c-0.5,0.5-0.8,1-0.8,1.5c0,0.5-0.1,1.2-0.1,2c-0.1,2.1,0.2,3,0.8,3c2.9-1.9,5.2-3.6,6.7-5.1c1.5-1,2.8-2,4.1-2.9
	C281.6,321,282.4,320.5,282.9,320.5z M295.6,274c1-0.7,2.2-1.5,3.4-2.3c1.2-0.8,2.1-1.4,2.5-1.9c1.7-2.1,0.7-2.1-3,0
	c-1.1,0.7-2.4,1.4-3.8,2.1c-1.4,0.7-2.6,1.4-3.7,2.1c-0.8,0.4-1.6,0.9-2.6,1.4c-0.9,0.5-1.6,0.8-1.9,0.8c-3,2.2-6.2,4.2-9.5,6.1
	c-3.4,1.8-5.4,2.9-6.2,3.2c-1.5-0.2-2.3,0.8-2.2,2.8c0,1.5,0.1,2.2,0.3,2.3c0.2,0,1.1-0.5,2.6-1.5c1.6-0.7,2.9-1.4,3.7-2.1
	c0.9-0.7,2.1-1.5,3.7-2.2c0.3-0.3,1.3-0.8,2.8-1.5c1.5-0.7,2.8-1.6,3.9-2.7c1-0.7,2.5-1.7,4.5-3C292.3,276.2,294.1,275,295.6,274z
	 M296.3,320.5c0.6-0.1,0.9-0.5,0.8-1.4c-0.1,0-0.6,0-1.4,0c-0.4,0.4-1.4,1-3,1.7c-1.5,0.7-3.1,1.5-4.5,2.5
	c-4.9,2.6-8.4,4.4-10.6,5.5c-2.1,1.1-4.1,2.2-5.9,3.1c-1.5,0.7-2.4,1.4-2.6,2c-0.2,0.6-0.3,1.4-0.3,2.3c-0.1,2.8,0.6,3.5,2.2,2.1
	c0.2-0.6,0.7-0.8,1.5-0.7c0.7,0.1,1.4-0.6,2.2-2.1c0.3-0.3,1.2-1,2.4-2c1.3-1,2.7-2,4.3-3.1c1.5-1,3.2-2.2,5.2-3.5
	c2-1.4,3.5-2.6,4.6-3.6c1-0.7,2-1.4,3-2C295.1,320.8,295.8,320.5,296.3,320.5z M275.4,278.3c0.3-0.3,0.9-0.8,1.5-1.4
	c0.7-0.6,1.4-1.1,2.2-1.5c2.6-1.7,3.3-2.5,2.2-2.2c-1.1,0.2-3.4,1.2-6.7,3c-3.9,2-5.8,3.6-5.9,4.9c0,0.4,0.3,0.7,0.8,0.7
	c0.3,0,1.4-0.5,3.2-1.5C274.5,279.4,275.4,278.7,275.4,278.3z M273.8,317.7c1.8-0.7,5.1-2.9,9.8-6.4c0-0.3-0.5-0.3-1.4,0.1
	c-0.9,0.4-2.5,1.1-4.7,2c-2.3,1.6-4.3,2.8-5.9,3.6c-0.8,0.4-1.5,0.8-2.1,1.2c-0.6,0.4-0.9,0.7-0.9,1.1c0,0.7,0.4,1.1,1.2,1.1
	c0.8,0,1.4-0.4,1.8-1.1C272.3,319.1,273.1,318.6,273.8,317.7z M303.1,257.5c0-0.7,0.1-1.5,0.3-2.2c0.2-0.7,0.3-1.4,0.3-2.2
	c0.6-1.4,0.9-2.1,0.8-2.1c-0.3,0-1.1,0.5-2.6,1.5c-1.5,1-3.1,2.1-4.9,3.3c-1.8,1.2-3.6,2.5-5.3,3.8c-1.7,1.3-2.9,2.2-3.6,2.9
	c-0.8,0.4-1.7,1-2.8,1.9c-1.1,0.8-2.2,1.6-3.2,2.3c-0.8,0.4-1.9,1.1-3.3,2.2c-1.5,1-2.9,2.1-4.3,3.3c-1.4,1.2-2.6,2.3-3.5,3.3
	c-1,1-1.5,1.6-1.5,2c-0.4,0-0.3,0,0.3-0.1c0.6-0.1,1.5-0.5,2.6-1.2c4.1-2.5,7.4-4.3,9.9-5.4c2.4-1.2,3.9-1.7,4.3-1.7
	c0.3,0,1-0.3,1.9-0.9c0.9-0.6,1.8-1.2,2.6-2c1-0.7,2.4-1.5,4.1-2.2c1.7-0.7,3.1-1.4,4.2-2.2c1.5-1,2.4-1.8,3-2.3
	C302.8,258.9,303.1,258.3,303.1,257.5z M305.3,322c0-0.7,0.1-1.5,0.4-2.2c0.3-0.7,0.4-1.4,0.4-2.2c0.8-1.4,0.8-2.1,0.2-2.2
	c-0.6,0-1.7,0.4-3.2,1.4c-0.4,0.7-1.2,1.4-2.3,2.1c-1.1,0.7-1.8,1.2-2.2,1.5c-1.6,0.7-2.9,1.5-3.7,2.2c-0.4,0-1.2,0.5-2.3,1.4
	c-1.1,0.9-2.3,1.9-3.8,2.8c-1.1,1.1-2.8,2.4-5,4c-2.2,1.6-4,2.9-5.5,3.9c-4.1,2.6-6.7,4.4-7.9,5.5c-1.1,1.1-1.5,1.7-1,1.7
	c0.8,0,1.9-0.4,3.3-1.2c1.5-0.8,2.6-1.6,3.4-2.3c0.8-0.6,1.5-0.8,2.2-0.7c0.3,0,1-0.2,2-0.6c1-0.4,2.1-0.9,3.2-1.5
	c1.2-0.6,2.3-1.3,3.4-1.9c1.1-0.7,2-1.2,2.6-1.6c0.3-0.3,1.6-1.2,3.8-2.5c2.2-1.3,5.2-2.9,9-4.7c0.8-0.3,1.5-0.8,2.1-1.4
	C305,322.9,305.3,322.4,305.3,322z M297,286.2c0.9-0.8,1.5-1.3,1.5-1.5c0-0.7-0.8-0.8-2.4-0.1c-1.6,0.7-3.3,1.7-5.1,3.1
	c-1.5,0.7-3.5,1.8-5.7,3.1c-2.3,1.3-4.9,2.7-7.8,4.1c-4.1,2.2-6.5,3.6-7.2,4.3c-0.6,0.6-1,1.8-1,3.5c0,0.7,0,1.9,0,3.6
	c0.2,0,1.1-0.6,2.8-1.7c1.7-1.1,3.6-2.5,5.7-4.1c2.1-1.6,4.3-3.3,6.5-4.9c2.2-1.7,3.9-3.1,5.1-4.3c0.8-0.3,1.5-0.8,2.1-1.4
	c0.6-0.6,1.2-1.1,1.6-1.5C294.2,287.6,295.4,286.9,297,286.2z M287.4,303.4c0.2,0,1-0.5,2.4-1.5c1.5-1,3.1-2.2,4.8-3.4
	c1.8-1.2,4.1-2.9,6.9-5.1h-0.8c-0.3,0-1,0.3-2.3,0.9c-1.2,0.6-2.6,1.3-4.2,2c-1.5,0.7-3,1.5-4.4,2.2c-1.4,0.7-2.2,1.1-2.6,1.3
	c0,0.4-0.3,0.8-0.9,1c-0.6,0.3-1.1,0.4-1.4,0.4c-3.4,1.5-5.7,2.6-7.1,3.2c-1.4,0.7-3,1.5-4.8,2.5c-1.5,0.7-2.5,1.4-2.8,2
	c-0.3,0.6-0.6,1.6-1,3c0,0.7,0,1.7,0,2.8c0,0.4,0.4,0.3,1.3-0.2c0.9-0.6,1.7-1.2,2.5-2c0.9-0.7,2-1.5,3.5-2.6c1.5-1.1,3-2.1,4.5-3.1
	c1.5-1,2.8-1.8,4-2.5C286.4,303.7,287.1,303.4,287.4,303.4z M305.3,279c1-0.3,1.7-0.8,1.9-1.4c0.2-0.6,0.3-1.1,0.3-1.5
	c0-1.4-0.4-3.1-1.2-5.2c-0.8-2.1-1.4-3-1.7-2.7c-0.3,0.4-1.1,1.2-2.6,2.4c-1.5,1.2-3.2,2.4-5,3.6c-1.8,1.2-3.4,2.3-4.9,3.3
	c-1.5,0.9-2.3,1.4-2.5,1.4c-0.1,0.2-0.6,0.7-1.4,1.5c-2.4,2.1-4.4,3.5-6.1,4.2c-0.8,0-0.8,0,0,0c0.3,0,1-0.2,2.1-0.5
	c1-0.3,2.1-0.9,3.2-1.6c1-0.3,2.6-1.1,4.6-2.3c2-1.2,4-2.3,5.9-3.4c5.6-3.2,8.1-4.3,7.6-3.3c-0.5,1-3.6,3.3-9.1,6.9
	c-1.5,1.1-3.6,2.4-6.2,4c-2.6,1.6-5,2.8-7.2,3.8c-1.9,1.5-4.4,2.9-7.5,4.3c-0.4-0.3,0-0.9,1.2-1.7c1.2-0.8,2.1-1.2,2.5-1.2
	c0.2-0.1,0.7-0.6,1.5-1.5c1.6-1.3,1.4-1.5-0.8-0.6c-0.4,0-0.8,0.1-1.2,0.3c-0.4,0.2-0.8,0.3-1.1,0.3c-0.2,0.6-1.4,1.6-3.7,3
	c-1.9,0.7-3.1,1.4-3.6,2.1c-0.5,0.7-0.6,1.2-0.1,1.5c0,0.4,0.1,0.5,0.5,0.2c0.3-0.2,0.7-0.6,1.1-1c0.3,0,0.9-0.1,1.7-0.4
	c0.8-0.2,1.7-0.4,2.8-0.4c0.8,0,1.8-0.2,3-0.7c0.9-0.7,2.1-1.4,3.7-2.1c0.8-0.3,1.7-0.8,2.6-1.4c1-0.6,1.9-1.1,2.6-1.5
	c0.8-0.3,1.5-0.8,2.1-1.4c0.6-0.6,1.2-0.9,1.6-0.9c2.4-0.8,4.4-1.8,5.9-2.8c1.5-0.7,2.9-1.4,4.3-2C303.4,280,304.5,279.4,305.3,279z
	 M301.5,336.3c1-0.3,1.7-0.7,1.9-1.1c0.2-0.4,0.3-1.7,0.3-4c0.2-2.9,0-4.3-0.6-4.3c-7.4,5.2-13.9,9.8-19.5,13.7
	c-5.2,3.6-8.9,6.5-11.1,8.7c-2.1,2.2-1.7,2.4,1.3,0.6c0.3,0,1.2-0.3,2.4-0.9c1.3-0.6,2.5-1.2,3.6-2c1-0.7,2.3-1.4,3.8-2
	c1.5-0.6,2.5-1.1,2.9-1.5c1.5-1,3.7-2.2,6.8-3.5C296.5,338.6,299.2,337.4,301.5,336.3z M299.4,268.3c1.2-0.6,2.2-1.1,3-1.5
	c0.8-0.7,1.2-1.2,1.3-1.5c0.1-0.2,0.1-0.9,0.1-2c-0.4-1-0.9-1.4-1.4-1.4c-0.5,0.1-2,1-4.6,2.7c-1.1,0.7-2.2,1.4-3.2,2
	c-1,0.6-1.7,0.9-2.1,0.9c-0.4,0-1,0.3-1.6,0.9c-0.6,0.6-1.4,1.2-2.1,2c-0.8,0.7-2,1.6-3.5,2.5c-1.6,0.9-2.9,1.8-3.9,2.5
	c-2.3,1.5-4.4,3.2-6.4,5.1c-1.9,1.9-2.5,2.8-1.7,2.8c0.9-0.6,1.4-1.1,1.4-1.5c0.3-0.3,1-0.8,2.1-1.4c1-0.6,2.1-1.1,3.2-1.5
	c1-0.7,2.3-1.5,3.7-2.2c1.4-0.7,2.7-1.4,3.8-2.2c2.9-1.7,5.5-3.1,7.6-4.2C297.1,269.4,298.6,268.7,299.4,268.3z M304.5,364.3
	c2.9-1.7,4.7-2.9,5.2-3.4c0.6-0.5,0.8-1.5,0.8-3c-0.4-1-1.1-1.5-2.1-1.5s-2.5,0.7-4.8,2.1c-0.8,0.7-2.1,1.8-3.9,3.1
	c-1.8,1.3-3.5,2.5-5,3.5c-1.9,1.1-3.5,2.1-4.9,3c-1.4,0.9-2.2,1.6-2.6,1.9c-0.8,0.7-1.5,0.9-2.3,0.7c-0.4,0-1.1,0.4-2.1,1.1
	c-1,0.7-2,1.5-3,2.5c-4.4,2.9-6.1,4.3-5.3,4.3c0,0.2,1.3-0.2,3.9-1.4c2.6-1.2,5.6-2.6,9-4.3c3.4-1.6,6.7-3.3,10-5
	C300.8,366.2,303.1,365,304.5,364.3z M306.1,312c0.3-0.3,0.5-0.7,0.5-1.2c0-0.5-0.2-1.3-0.5-2.3c-0.4-1.7-0.8-2.7-1.2-3
	c-0.4-0.2-1,0-1.7,0.7c-0.4,0.4-1.5,1.3-3.2,2.6c-1.7,1.3-3.5,2.7-5.4,4.2c-1.9,1.5-3.7,2.8-5.4,4.1c-1.7,1.2-2.8,1.9-3.3,2.1
	c-1,0.7-2.2,1.6-3.5,2.6c-1.3,1-2.5,1.9-3.7,2.8c-1.2,0.9-2.5,1.9-4.1,3.1c0,0.4,0.6,0.4,1.9,0.1c1.2-0.4,2.6-1.1,4.2-2.2
	c1.5-0.7,3.2-1.7,5.2-2.8c0.8,0.2,1.5-0.1,2.3-0.7c0.8-0.7,1.8-1.2,3-1.5c0.3-0.2,1.2-0.6,2.7-1.4c1.5-0.7,3-1.6,4.7-2.5
	c1.7-0.9,3.2-1.9,4.7-2.7C304.7,313.1,305.6,312.4,306.1,312z M321.6,218.1c1-0.7,2.2-1.4,3.6-2c1.4-0.6,2.4-1.1,3.2-1.5
	c1-0.7,1.5-1.2,1.5-1.2c0-0.1-0.5-0.1-1.5-0.1c-2.3,0-4.3,0-5.9,0.1c-1.6,0.1-3.2,0.5-4.6,1.2c-1.6,0-2.8,0-3.6,0
	c-0.8-0.3-1.4-0.5-1.9-0.5c-0.5,0-1.1,0.2-1.9,0.5c-0.4,0.7-1.2,1.5-2.3,2.2c-0.4,0-1,0.3-1.8,0.9c-0.8,0.6-1.7,1.2-2.7,2
	c-1.1,1.1-2.5,2.4-4.2,4c-1.7,1.6-3.2,2.9-4.7,3.9c-1.9,1.1-3.5,2.2-4.9,3.4c-1.4,1.2-2.2,2-2.6,2.3c-0.4,0-1.3,0.5-2.6,1.4
	c-1.3,0.9-2.7,1.9-4.1,2.9c-1.5,1.5-3.3,3.1-5.3,4.9c0,0.2,0.5,0.2,1.4-0.2c0.9-0.4,2-0.9,3.3-1.5c1.3-0.6,2.6-1.3,3.8-2
	c1.2-0.7,2.2-1.4,2.8-2c0.3,0,1.3-0.5,3-1.4c1.6-0.9,3.4-1.9,5.3-3c1.8-0.7,3.7-1.6,5.6-2.7c1.9-1.1,3.3-1.8,4.1-2.2
	c0.8-0.3,1.4-0.7,1.7-1c0.4-0.3,0.8-0.5,1.2-0.5c2-1.3,3.7-2.5,5.3-3.6c1-0.7,2.5-1.5,4.4-2.4C319,219.2,320.5,218.5,321.6,218.1z
	 M306.1,286.2c0-0.7,0.1-1.4,0.4-2c0.3-0.6,0.4-1.1,0.4-1.5c0.3-1,0.2-1.5-0.5-1.5c-0.7,0-1.5,0.5-2.6,1.5c-1.4,1.4-2.4,2.1-3,2.1
	c-0.3,0.2-1,0.8-2.2,1.7c-1.2,0.9-2.6,1.9-4.1,3c-1.5,1.1-3,2.1-4.3,3.1c-1.3,1-2.3,1.8-2.8,2.3c-0.4,0.4-1.3,1.1-2.6,2
	c-1.3,0.9-2.7,1.9-4.1,2.9c-3,2.2-4.6,3.5-4.6,3.8c-0.1,0.3,0.4,0.2,1.5-0.2c1-0.3,2.6-1.1,4.6-2.3c2-1.2,5.5-3.1,10.4-5.6
	c1-0.7,2.8-1.4,5.3-2.1c1.7-1.2,3-2.1,3.7-2.8c1.5-0.7,2.5-1.4,3-1.9C305.1,288.1,305.6,287.3,306.1,286.2z M295.6,377.1
	c1-1.4,2.5-2.9,4.4-4.5c1.9-1.6,4.9-4.4,9-8.3c-0.4,0-1.4,0.3-3,0.9c-1.6,0.6-2.6,1.2-2.9,2c-0.8,0.4-1.9,0.9-3.5,1.5
	c-1.5,0.6-4.4,1.8-8.5,3.5c-0.8,0.4-2,1-3.5,1.9c-1.6,0.8-2.9,1.6-3.9,2.3c-1.1,0.7-2.3,1.3-3.6,1.7c-1.3,0.4-2.1,0.6-2.4,0.6
	c-2.1,0.7-1.5,1.4,1.5,2.1c0.3,0,1.3,0.1,2.8,0.4c1.5,0.2,2.8,0.4,3.9,0.4c2.6,0,4.3-0.2,5.1-0.5
	C291.7,380.6,293.3,379.3,295.6,377.1z M299.4,301.3c1.8-0.7,2.9-1.3,3.2-1.6c0.3-0.3,0.5-1.2,0.5-2.7c0-1.4-0.1-2.2-0.4-2.3
	c-0.3-0.2-0.9,0.1-1.9,0.9c-0.4,0.4-1.2,1-2.3,1.7c-1.1,0.7-2.2,1.5-3.4,2.2c-1.2,0.7-2.2,1.4-3.2,1.9c-0.9,0.5-1.5,0.7-1.7,0.7
	c-0.8,0.1-1.5,0.5-2.2,1.4c0,0.4-0.6,1.1-1.9,1.9c-1.3,0.9-2.7,1.7-4.1,2.4c-3,2.3-4.5,3.5-4.5,3.6c0.3,0,1.2-0.2,2.5-0.5
	c1.3-0.3,2.8-0.9,4.3-1.6c2.9-1.7,5.5-3.1,7.7-4.1C294.3,304,296.7,302.7,299.4,301.3z M279.9,261.1c0,0.4,0.1,0.6,0.4,0.6
	c0.3,0,0.4-0.2,0.4-0.6c0.3,0,0.3-0.2,0-0.7c-0.4,0-0.8,0.1-1,0.4C279.4,261,279.5,261.1,279.9,261.1z M297,252.6
	c3.4-1.7,5.7-3.2,7-4.4c1.3-1.2,2-2.4,2-3.5c0-0.7,0-0.9,0-0.7c-2,1.2-3.5,2.1-4.5,2.8c-1.1,0.7-2.5,1.6-4,2.5
	c-1.5,0.9-2.7,1.5-3.5,1.9c-0.8,0.7-1.8,1.5-3,2.2c-1.2,0.7-2.2,1.4-3,2.2c-0.4,0.4-1.1,0.9-2,1.5c-0.9,0.6-1.7,1-2.5,1.4
	c-0.9,0.7-1.5,1.4-1.5,2.1c0,0.4,1.1,0,3.2-1.2c2.1-1.2,3.5-2.2,4.3-3c0.3-0.3,1.2-0.8,2.6-1.5C293.5,254,295.1,253.3,297,252.6z
	 M282.9,286.2c0,0.4,0.1,0.6,0.4,0.6c0.3,0,0.4-0.2,0.4-0.6c0.3,0,0.3,0,0,0c-0.4,0-0.8,0-1,0C282.3,286.2,282.4,286.2,282.9,286.2z
	 M285.1,310.5c0.3,0,0.9-0.2,1.5-0.7c0-0.3-0.2-0.4-0.5-0.1C285.7,309.9,285.4,310.2,285.1,310.5c-0.4,0-0.5,0.1-0.3,0.3
	C284.9,311,285.1,310.9,285.1,310.5z M297,306.9c2.6-1,4.5-1.9,5.7-2.7c1.2-0.8,1.8-1.5,1.8-2.3h-0.8c-0.4,0-1.5,0.3-3.1,0.9
	c-1.6,0.6-2.8,1.2-3.6,2c-0.1,0.8-0.6,1.3-1.4,1.4c-2.8,1.4-5,2.6-6.8,3.6c-3,2.2-4.4,3.5-4.1,3.8c0.3,0.3,1.9-0.5,4.9-2.3
	c1-0.7,2.3-1.5,3.7-2.4C294.7,308,295.9,307.4,297,306.9z M287.4,309.2c0,0.4,0.1,0.6,0.4,0.6c0.3,0,0.4-0.2,0.4-0.6
	c0.3,0,0.3,0,0,0c-0.4,0-0.8,0-1,0C286.9,309.2,286.9,309.2,287.4,309.2z M294.1,362.8c0,0.4,0.1,0.6,0.4,0.6c0.3,0,0.4-0.2,0.4-0.6
	c0.3,0,0.4-0.1,0.1-0.4c-0.3-0.2-0.6-0.4-0.9-0.4C293.6,362.5,293.6,362.8,294.1,362.8z M294.1,220.3c0.2,0,1-0.3,2.4-1
	c1.4-0.7,3-1.4,4.6-2.2c1.7-0.8,3.2-1.6,4.6-2.4c1.4-0.8,2.3-1.3,2.5-1.5c0.8-0.7,0.5-0.9-0.9-0.4c-1.4,0.5-2.8,1-4.3,1.8
	c-0.4,0.4-1,0.9-1.6,1.4c-0.6,0.5-1.1,0.8-1.5,0.8c-0.3,0-0.7,0.2-1.4,0.6c-0.7,0.4-1.4,0.8-2.2,1.3c-0.8,0.5-1.4,0.8-1.9,1.2
	C293.9,220.2,293.8,220.3,294.1,220.3z M307.5,374.3c1.5-0.3,2.3-0.8,2.6-1.3c0.3-0.5,0.7-2.2,1.1-5.1c0.1-2.7-0.9-3-3-0.7
	c-0.4,0.4-1.4,1.3-3,2.6c-1.5,1.3-3.1,2.8-4.5,4.6c-1.9,1.5-3.5,2.8-4.7,4c-1.2,1.2-1.7,1.7-1.2,1.7c0.3,0.4,1.8,0,4.3-1.2
	c2.5-1.2,4.3-2.2,5.4-3c0-0.3,0.4-0.7,1.2-1C306.4,374.4,307,374.3,307.5,374.3z M306.1,382.2c0.5-1.2,0.8-2.1,0.8-2.8
	c0-2.1,0-3,0-3c-0.4,0-1.7,0.5-3.7,1.5c-0.7,0.8-1.7,1.3-3.1,1.5c-0.9,0.7-1.3,1.4-1.4,2.1c1.4,0.3,2.5,0.6,3.4,0.7
	c0.9,0.2,1.7,0.3,2.5,0.3C305.3,382.5,305.8,382.4,306.1,382.2z M350.9,220.3c0.9-0.1,1.3-1.3,1.4-3.6c0.9-3.6-0.1-4.4-3-2.2
	c-0.8,0.7-1.8,1.2-3,1.5c-0.8,0.2-1.5,0.7-2.3,1.5c0,0.4-0.8,1.1-2.3,2.1c-1.5,1-3,2.2-4.4,3.6c-1.9,1.1-3.5,2.1-4.9,3
	c-1.4,0.9-2.2,1.4-2.6,1.4c0,0.4-0.5,0.9-1.5,1.5c-1,0.6-2,1.3-3,2c-2.3,1.5-4.9,3.1-7.7,4.9c-2.8,1.8-5.7,3.7-8.6,5.9
	c-0.4,0.4-0.8,0.7-1,1c-0.3,0.2-0.2,0.4,0.3,0.4c0.3,0.4,1.2,0.4,2.6,0c1.4-0.4,3-1.4,4.9-2.8c2.4-1.4,5.2-2.8,8.2-4.3
	c2.9-1.4,6.4-3.3,10.6-5.6c4.1-2.3,8.1-4.7,11.9-7.3c1-0.7,2-1.3,3-1.7C350.4,221.2,350.9,220.8,350.9,220.3z M308.2,379.3
	c0,1.8,0.1,2.7,0.4,2.8c0.3,0,0.4-0.7,0.4-2.2c0-0.7,0-1.4,0-2.1c-0.4-0.7-0.7-0.9-0.7-0.6C308.3,377.7,308.2,378.3,308.2,379.3z
	 M335.9,233.9c1.5-0.7,3.3-2.1,5.5-4c2.2-1.9,3.4-3.2,3.4-4c-0.1-0.7-0.6-0.7-1.4,0c0,0.4-1.5,1.5-4.4,3.3
	c-2.9,1.8-6.4,3.6-10.6,5.3c-1.5,0.7-3.2,1.7-4.9,2.8c-1.7,1.1-3.1,1.8-4.1,2.2c-1.9,1.5-2.8,2.3-2.8,2.5c0,0.2,0.9,0.1,2.8-0.3
	c3.4-0.3,5.6-0.7,6.7-1.1c1.1-0.4,2.6-1.5,4.5-3.3c0.8-0.7,1.7-1.4,2.6-2C334.3,234.9,335.2,234.3,335.9,233.9z M346.4,239.6
	c1-0.3,2.3-1.6,3.7-3.8c1.5-2.2,2.2-4,2.2-5.5c0.2-2.1-0.8-2.3-3-0.7c-1.6,0.8-3.6,2-5.9,3.6c-0.8,0.4-1.8,1-3.2,1.9
	c-1.4,0.8-2.8,1.4-4.3,1.7c-1.9,1.5-2.7,2.3-2.4,2.5c0.3,0.2,2.1,0.3,5.4,0.3c1.5,0,3,0,4.5,0C345,239.6,346,239.6,346.4,239.6z
	 M346.4,230.4c1.5-1,3.2-2.2,5.2-3.6c0.8,0,0.8-0.7,0-2.2c0-0.7-0.3-0.9-0.9-0.4c-0.6,0.5-2,1.8-4.3,4c-1.9,1.1-3.5,2.2-4.9,3.3
	c-1.4,1.2-2.2,1.7-2.6,1.7c-1.5,1.4-1.5,1.6,0,0.7c0.8,0,1.8-0.4,3.2-1.2C343.4,231.9,344.8,231.1,346.4,230.4z M350.9,238.9
	c0.9-0.1,1.3-0.5,1.4-1.4c-0.1-0.8-0.6-1.3-1.4-1.5c0,0.2,0,0.7,0,1.5C350.9,238.3,350.9,238.8,350.9,238.9z"/>
</svg>
