<?xml version="1.0" encoding="utf-8"?>
<!-- Generator: Adobe Illustrator 21.0.0, SVG Export Plug-In . SVG Version: 6.00 Build 0)  -->
<svg version="1.1" id="Layer_1" focusable="false" xmlns="http://www.w3.org/2000/svg" xmlns:xlink="http://www.w3.org/1999/xlink"
	 x="0px" y="0px" viewBox="0 0 512 512" style="enable-background:new 0 0 512 512;" xml:space="preserve">
<style type="text/css">
	.st0{fill:url(#SVGID_1_);}
	.st1{fill:url(#SVGID_2_);}
	.st2{fill:url(#SVGID_3_);}
	.st3{fill:#FFFFFF;}
</style>
<linearGradient id="SVGID_1_" gradientUnits="userSpaceOnUse" x1="-2.7213" y1="257" x2="495.2787" y2="257">
	<stop  offset="2.793296e-03" style="stop-color:#EC7221"/>
	<stop  offset="0.4568" style="stop-color:#FFFFFF"/>
	<stop  offset="0.7997" style="stop-color:#92C28C"/>
	<stop  offset="0.9996" style="stop-color:#57A14D"/>
</linearGradient>
<path class="st0" d="M506,254.9c0-65.9-28-127.8-74.6-174.5C384.8,33.7,322.8,8,256.9,8c-0.1,0-0.3,0-0.4,0c-0.1,0-0.3,0-0.4,0
	C119,8,8,119,8,256c0,45.8,12.4,88.7,34.1,125.5L8,506l127.2-33.4c35.8,20,76.9,31.4,120.8,31.4c84.2,0,158.6-42,203.4-106.2
	C488.7,357.5,506,308.1,506,254.9z"/>
<linearGradient id="SVGID_2_" gradientUnits="userSpaceOnUse" x1="47.9" y1="258" x2="464.1" y2="258" gradientTransform="matrix(1 0 0 -1 0 514)">
	<stop  offset="2.793296e-03" style="stop-color:#EC7221"/>
	<stop  offset="0.4947" style="stop-color:#EA7121"/>
	<stop  offset="0.6719" style="stop-color:#E36D20"/>
	<stop  offset="0.7981" style="stop-color:#D8651E"/>
	<stop  offset="0.8995" style="stop-color:#C75B1B"/>
	<stop  offset="0.9861" style="stop-color:#B14E18"/>
	<stop  offset="0.9996" style="stop-color:#AD4B17"/>
</linearGradient>
<circle class="st1" cx="256" cy="256" r="208.1"/>
<linearGradient id="SVGID_3_" gradientUnits="userSpaceOnUse" x1="277.3062" y1="572.2963" x2="251.1184" y2="375.8883" gradientTransform="matrix(1 0 0 -1 0 514)">
	<stop  offset="5.154639e-03" style="stop-color:#FFFFFF"/>
	<stop  offset="0.1234" style="stop-color:#FFFCFB"/>
	<stop  offset="0.2496" style="stop-color:#FEF4EE"/>
	<stop  offset="0.3795" style="stop-color:#FCE7D9"/>
	<stop  offset="0.512" style="stop-color:#F9D4BB"/>
	<stop  offset="0.6465" style="stop-color:#F6BC94"/>
	<stop  offset="0.7827" style="stop-color:#F29E65"/>
	<stop  offset="0.9177" style="stop-color:#ED7B2E"/>
	<stop  offset="1" style="stop-color:#EA6409"/>
</linearGradient>
<ellipse class="st2" cx="256.4" cy="98.5" rx="92.2" ry="42.2"/>
<path class="st3" d="M369.4,306.5c-6.1-3.1-36.5-18-42.1-20c-5.7-2.1-9.8-3.1-13.9,3.1c-4.1,6.2-15.9,20-19.6,24.2
	c-3.6,4.1-7.2,4.7-13.3,1.6c-36.2-18.1-60-32.3-83.9-73.4c-6.3-10.9,6.3-10.1,18.1-33.7c2-4.1,1-7.7-0.6-10.8
	c-1.6-3.1-13.9-33.5-19-45.8c-5-12-10.1-10.3-13.9-10.6c-3.6-0.2-7.7-0.2-11.8-0.2c-4.1,0-10.8,1.6-16.5,7.7
	c-5.7,6.2-21.6,21.1-21.6,51.5s22.1,59.7,25.1,63.8c3.1,4.1,43.5,66.4,105.4,93.2c39.1,16.9,54.5,18.3,74,15.5
	c11.9-1.8,36.5-14.9,41.6-29.3c5.1-14.5,5.1-26.8,3.6-29.3C379.6,311,375.5,309.5,369.4,306.5z"/>
</svg>
